<?xml version="1.0" encoding="UTF-8"?>
<svg version="1.1" xmlns="http://www.w3.org/2000/svg" width="128" height="118">
<path d="M0 0 C3.4855894 2.63355644 4.7949595 4.28235825 6 8.5 C6 13.32773113 4.52272814 15.42288871 1.25 18.8125 C-2.08187066 20.57098729 -4.28346973 20.51262487 -8 20 C-10.97046873 18.20976215 -13.42502414 16.14995172 -15 13 C-15.38112297 8.96009652 -15.4240682 6.70678033 -13.3125 3.1875 C-9.06798265 -0.82758398 -5.63479356 -1.76087299 0 0 Z " fill="#FFFFFF" transform="translate(102,39)"/>
<path d="M0 0 C3.81504836 1.69557705 5.47668134 3.1501583 7 7 C7.21457815 10.12513818 6.85810959 12.98831213 6 16 C3.6580577 18.60215811 1.84646564 19.66586883 -1.375 20.9375 C-5.22760237 21.02922863 -7.65618878 19.8576729 -11 18 C-13.10188942 15.70105845 -13.90175043 14.18139115 -14.16015625 11.07421875 C-13.96282746 6.88295523 -13.21166902 5.24190745 -10.375 2 C-6.43745901 -0.33335762 -4.50066863 -0.65464271 0 0 Z " fill="#FFFFFF" transform="translate(34,59)"/>
</svg>
